<?xml version="1.0" standalone="no"?>
<!DOCTYPE svg PUBLIC "-//W3C//DTD SVG 20010904//EN"
 "http://www.w3.org/TR/2001/REC-SVG-20010904/DTD/svg10.dtd">
<svg version="1.0" xmlns="http://www.w3.org/2000/svg"
 width="512.000000pt" height="512.000000pt" viewBox="0 0 512.000000 512.000000"
 preserveAspectRatio="xMidYMid meet">

<g transform="translate(0.000000,512.000000) scale(0.100000,-0.100000)" fill="currentColor" stroke="currentColor">
<path d="M905 5105 c-51 -18 -120 -91 -134 -141 -15 -55 -15 -4753 0 -4809 14
-51 93 -130 146 -144 26 -7 436 -11 1286 -11 l1247 0 0 75 0 75 -1245 0 -1246
0 -24 25 -25 24 0 2361 0 2361 25 24 24 25 1601 0 1601 0 24 -25 25 -24 0
-2361 0 -2361 -25 -24 c-23 -24 -29 -25 -155 -25 l-130 0 0 -75 0 -75 131 0
c75 0 150 5 173 12 54 16 128 90 144 144 18 60 18 4748 0 4808 -17 55 -91 131
-143 145 -28 8 -514 11 -1650 11 -1362 -1 -1616 -3 -1650 -15z"/>
<path d="M1060 3725 l0 -1095 75 0 75 0 0 593 0 592 110 110 109 109 51 -18
c70 -25 178 -19 244 14 53 27 104 81 132 139 27 54 30 169 8 231 l-18 51 109
109 110 110 495 0 495 0 110 -110 109 -109 -18 -51 c-23 -64 -19 -177 9 -235
25 -51 89 -115 140 -140 58 -28 171 -32 235 -9 l51 18 109 -109 110 -110 0
-1255 0 -1255 -110 -110 -109 -109 -51 18 c-64 23 -177 19 -235 -9 -51 -25
-115 -89 -140 -140 -28 -58 -32 -171 -9 -235 l18 -51 -109 -109 -110 -110
-495 0 -495 0 -110 110 -109 109 18 51 c22 62 19 177 -8 231 -28 58 -79 112
-132 139 -66 33 -174 39 -244 14 l-51 -18 -109 109 -110 110 0 587 0 588 -75
0 -75 0 0 -1090 0 -1090 1500 0 1500 0 0 2260 0 2260 -1500 0 -1500 0 0 -1095z
m687 837 c-99 -99 -107 -110 -91 -123 96 -79 100 -209 8 -270 -46 -30 -122
-26 -170 9 -21 16 -45 36 -53 46 -13 16 -24 8 -123 -91 l-108 -108 0 323 0
322 322 0 323 0 -108 -108z m2163 -214 l0 -323 -108 108 c-99 99 -110 107
-123 91 -79 -96 -209 -100 -270 -8 -30 46 -26 122 9 170 16 21 36 45 46 53 16
13 8 24 -91 123 l-108 108 323 0 322 0 0 -322z m-2469 -3452 c79 96 209 100
270 8 30 -46 26 -122 -9 -170 -16 -21 -36 -45 -46 -53 -16 -13 -8 -24 91 -123
l108 -108 -323 0 -322 0 0 322 0 323 108 -108 c99 -99 110 -107 123 -91z
m2469 -126 l0 -320 -322 0 -323 0 108 108 c99 99 107 110 91 123 -96 79 -100
209 -8 270 37 24 120 25 154 2 14 -9 39 -29 55 -44 l31 -29 104 105 c58 58
106 105 107 105 2 0 3 -144 3 -320z"/>
<path d="M2330 4445 l0 -75 80 0 80 0 0 75 0 75 -80 0 -80 0 0 -75z"/>
<path d="M2630 4445 l0 -75 80 0 80 0 0 75 0 75 -80 0 -80 0 0 -75z"/>
<path d="M2482 3578 l3 -223 75 0 75 0 3 223 2 222 -80 0 -80 0 2 -222z"/>
<path d="M2100 3653 c-30 -8 -56 -16 -58 -18 -3 -3 68 -288 73 -294 9 -9 146
32 142 43 -2 6 -19 73 -38 149 -37 152 -30 144 -119 120z"/>
<path d="M2935 3659 c-2 -8 -20 -76 -38 -151 l-34 -136 69 -17 c38 -10 71 -15
74 -12 6 6 73 265 74 283 0 6 -26 17 -57 24 -32 7 -64 15 -70 17 -7 3 -15 -1
-18 -8z"/>
<path d="M2132 3159 c-124 -20 -249 -121 -292 -236 -30 -81 -37 -182 -16 -263
66 -259 279 -483 628 -660 l107 -55 98 48 c142 70 309 185 400 274 268 264
328 576 148 771 -156 168 -406 167 -585 -4 l-60 -57 -58 55 c-109 104 -238
148 -370 127z m186 -180 c69 -34 141 -107 198 -199 20 -33 40 -60 44 -60 4 0
24 27 44 60 91 148 205 230 318 230 97 0 166 -41 211 -125 31 -58 30 -179 -3
-255 -59 -138 -172 -271 -312 -367 -98 -67 -233 -143 -255 -143 -26 0 -122 52
-233 125 -160 106 -275 236 -340 385 -33 75 -35 196 -3 255 65 122 199 160
331 94z"/>
<path d="M2076 1674 c-20 -81 -35 -149 -32 -151 6 -6 108 -33 126 -33 12 0 24
35 49 138 18 75 34 141 35 146 1 9 -46 26 -110 40 l-31 7 -37 -147z"/>
<path d="M2919 1803 l-56 -14 35 -142 c19 -78 38 -146 42 -150 9 -10 140 22
140 35 0 8 -33 144 -61 251 -11 42 -15 43 -100 20z"/>
<path d="M2482 1578 l3 -223 75 0 75 0 3 223 2 222 -80 0 -80 0 2 -222z"/>
<path d="M3600 75 l0 -75 75 0 75 0 0 75 0 75 -75 0 -75 0 0 -75z"/>
</g>
</svg>
