<?xml version="1.0" standalone="no"?>
<!DOCTYPE svg PUBLIC "-//W3C//DTD SVG 20010904//EN"
 "http://www.w3.org/TR/2001/REC-SVG-20010904/DTD/svg10.dtd">
<svg version="1.0" xmlns="http://www.w3.org/2000/svg"
 width="512.000000pt" height="512.000000pt" viewBox="0 0 512.000000 512.000000"
 preserveAspectRatio="xMidYMid meet">

<g transform="translate(0.000000,512.000000) scale(0.100000,-0.100000)" fill="currentColor" stroke="currentColor">
<path d="M1945 5095 c-23 -22 -25 -31 -25 -128 l0 -104 -952 -962 c-524 -529
-957 -973 -962 -987 -6 -15 -6 -33 0 -48 5 -14 438 -457 961 -986 l953 -962 0
-434 0 -435 25 -24 24 -25 1551 0 1551 0 24 25 25 24 0 2511 0 2511 -25 24
-24 25 -1551 0 -1551 0 -24 -25z m3015 -2535 l0 -2400 -1440 0 -1440 0 0 2400
0 2400 1440 0 1440 0 0 -2400z m-3377 1395 c-856 -862 -853 -858 -853 -892 0
-19 10 -43 25 -61 58 -70 80 -165 54 -243 -7 -19 -27 -54 -45 -78 -56 -73 -52
-86 83 -225 65 -67 333 -337 596 -601 l478 -481 -3 -112 -3 -113 -855 865
c-470 475 -856 869 -858 874 -1 5 383 399 855 876 l858 867 3 -168 3 -167
-338 -341z m337 -227 l0 -332 -84 82 c-70 69 -89 82 -117 82 -45 0 -79 -33
-79 -78 0 -32 14 -49 140 -177 l140 -141 0 -220 0 -220 -224 25 c-211 23 -226
23 -250 8 -14 -10 -29 -29 -32 -42 -8 -34 12 -80 40 -93 13 -6 119 -21 235
-33 116 -13 216 -26 221 -29 7 -4 9 -182 8 -482 l-3 -475 -499 504 -499 503
29 63 c25 55 29 73 29 162 0 88 -3 107 -28 159 l-28 60 33 35 c39 43 962 971
965 971 2 0 3 -149 3 -332z"/>
<path d="M2266 4697 c-34 -34 -34 -79 -1 -112 69 -70 179 28 118 104 -10 12
-35 24 -55 27 -30 5 -41 2 -62 -19z"/>
<path d="M2585 4695 c-16 -15 -25 -35 -25 -56 0 -122 -117 -239 -239 -239 -21
0 -41 -9 -56 -25 l-25 -24 0 -1791 0 -1791 25 -24 c15 -16 35 -25 56 -25 122
0 239 -117 239 -239 0 -21 9 -41 25 -56 l24 -25 911 0 911 0 24 25 c16 15 25
35 25 56 0 122 117 239 239 239 21 0 41 9 56 25 l25 24 0 1791 0 1791 -25 24
c-15 16 -35 25 -56 25 -122 0 -239 117 -239 239 0 21 -9 41 -25 56 l-24 25
-911 0 -911 0 -24 -25z m1745 -149 c0 -32 73 -156 116 -195 42 -39 153 -101
182 -101 9 0 12 -345 12 -1690 0 -1345 -3 -1690 -12 -1690 -29 0 -140 -62
-182 -101 -43 -39 -116 -163 -116 -195 0 -12 -132 -14 -810 -14 -678 0 -810 2
-810 14 0 32 -73 156 -116 195 -42 39 -153 101 -181 101 -10 0 -13 345 -13
1690 0 1345 3 1690 13 1690 28 0 139 62 181 101 43 39 116 163 116 195 0 12
132 14 810 14 678 0 810 -2 810 -14z"/>
<path d="M3465 4455 l-25 -24 0 -351 0 -351 25 -24 c15 -16 36 -25 55 -25 19
0 40 9 55 25 l25 24 0 351 0 351 -25 24 c-15 16 -36 25 -55 25 -19 0 -40 -9
-55 -25z"/>
<path d="M2745 4055 c-48 -47 -40 -64 146 -296 93 -118 178 -220 186 -226 27
-21 72 -15 98 12 48 47 40 64 -146 296 -93 118 -178 220 -186 227 -27 20 -72
14 -98 -13z"/>
<path d="M4197 4068 c-8 -7 -93 -109 -186 -227 -186 -232 -194 -249 -146 -296
26 -27 71 -33 98 -12 8 6 93 108 186 226 186 232 194 249 146 296 -26 27 -71
33 -98 13z"/>
<path d="M3310 3421 c-205 -57 -388 -182 -506 -348 -54 -75 -116 -206 -139
-293 -26 -101 -31 -279 -11 -381 37 -182 109 -312 251 -454 181 -181 384 -265
640 -265 239 0 455 90 626 259 95 95 146 168 196 281 46 106 44 149 -9 176
-41 21 -67 12 -135 -47 -72 -63 -175 -113 -275 -133 -97 -20 -149 -20 -245 0
-429 88 -628 563 -388 924 26 39 68 87 93 108 25 20 56 47 69 59 31 30 30 76
-2 108 -29 30 -71 32 -165 6z m-188 -298 c-49 -95 -67 -182 -67 -318 0 -150
18 -224 88 -360 52 -100 180 -233 282 -293 181 -106 405 -136 603 -82 l67 18
-63 -58 c-74 -69 -188 -130 -298 -161 -60 -17 -106 -23 -194 -23 -140 0 -209
16 -340 81 -80 39 -109 60 -185 137 -145 146 -208 295 -209 496 -1 190 63 353
192 492 45 49 133 120 140 113 2 -2 -5 -20 -16 -42z"/>
<path d="M3077 1588 c-8 -7 -93 -109 -186 -227 -186 -232 -194 -249 -146 -296
26 -27 71 -33 98 -12 8 6 93 108 186 226 186 232 194 249 146 296 -26 27 -71
33 -98 13z"/>
<path d="M3865 1575 c-48 -47 -40 -64 146 -296 93 -118 178 -220 186 -226 27
-21 72 -15 98 12 48 47 40 64 -146 296 -93 118 -178 220 -186 227 -27 20 -72
14 -98 -13z"/>
<path d="M3465 1415 l-25 -24 0 -351 0 -351 25 -24 c32 -33 78 -33 110 0 l25
24 0 351 0 351 -25 24 c-15 16 -36 25 -55 25 -19 0 -40 -9 -55 -25z"/>
<path d="M4665 4695 c-16 -15 -25 -36 -25 -55 0 -19 9 -40 25 -55 15 -16 36
-25 55 -25 19 0 40 9 55 25 16 15 25 36 25 55 0 19 -9 40 -25 55 -15 16 -36
25 -55 25 -19 0 -40 -9 -55 -25z"/>
<path d="M2265 535 c-50 -49 -15 -135 55 -135 41 0 80 39 80 80 0 41 -39 80
-80 80 -19 0 -40 -9 -55 -25z"/>
<path d="M4665 535 c-50 -49 -15 -135 55 -135 41 0 80 39 80 80 0 41 -39 80
-80 80 -19 0 -40 -9 -55 -25z"/>
<path d="M537 2898 c-71 -54 -8 -171 74 -138 79 33 60 150 -24 150 -18 0 -41
-6 -50 -12z"/>
</g>
</svg>
