<?xml version="1.0" standalone="no"?>
<!DOCTYPE svg PUBLIC "-//W3C//DTD SVG 20010904//EN"
 "http://www.w3.org/TR/2001/REC-SVG-20010904/DTD/svg10.dtd">
<svg version="1.0" xmlns="http://www.w3.org/2000/svg"
 width="704.000000pt" height="512.000000pt" viewBox="0 0 704.000000 512.000000"
 preserveAspectRatio="xMidYMid meet">

<g transform="translate(0.000000,512.000000) scale(0.100000,-0.100000)" fill="currentColor" stroke="currentColor">
<path d="M1952 5104 c-22 -15 -22 -16 -22 -337 l0 -322 -372 -157 c-892 -376
-931 -393 -950 -419 l-19 -25 102 -239 c56 -132 178 -420 271 -640 94 -220
201 -472 238 -560 37 -88 138 -326 225 -530 86 -203 188 -442 225 -530 37 -88
115 -272 174 -410 l106 -250 0 -327 c0 -326 0 -327 22 -342 20 -14 186 -16
1571 -16 l1548 0 24 25 25 24 0 318 0 318 106 250 c59 138 137 322 174 410 37
88 139 327 225 530 87 204 188 442 225 530 37 88 144 340 238 560 93 220 215
508 271 640 l102 239 -19 25 c-19 26 -58 43 -949 419 l-373 157 0 313 0 313
-25 24 -24 25 -1548 0 c-1385 0 -1551 -2 -1571 -16z m3008 -2544 l0 -2400
-1440 0 -1440 0 0 2400 0 2400 1440 0 1440 0 0 -2400z m-3030 1580 c0 -115 -2
-131 -17 -137 -10 -4 -137 -57 -283 -119 -300 -127 -303 -129 -282 -209 35
-130 -9 -250 -111 -301 -40 -20 -66 -52 -67 -82 0 -13 63 -170 139 -350 76
-180 196 -462 266 -627 70 -165 171 -403 225 -530 54 -126 105 -248 114 -270
14 -34 16 -75 14 -237 l-3 -197 -567 1337 c-312 735 -570 1344 -573 1352 -4
12 35 32 167 88 95 40 351 149 568 241 217 93 398 169 403 170 4 1 7 -58 7
-129z m3320 77 c313 -133 903 -383 958 -405 47 -19 61 -30 57 -41 -3 -9 -261
-618 -573 -1353 l-567 -1337 -3 197 c-2 162 0 203 14 237 9 22 60 144 114 270
54 127 155 365 225 530 70 165 190 447 266 627 76 180 139 337 139 350 -1 30
-27 62 -67 82 -102 51 -146 171 -111 301 22 80 19 82 -297 216 l-280 118 -3
132 c-2 104 0 130 10 126 7 -3 60 -25 118 -50z m-3320 -697 l0 -310 -50 25
c-60 30 -79 31 -114 4 -20 -16 -26 -29 -26 -58 0 -45 9 -55 113 -111 l77 -42
0 -566 c0 -311 -2 -563 -4 -561 -2 2 -103 238 -224 524 -121 286 -250 589
-285 673 l-66 153 50 46 c29 27 62 72 81 110 27 55 33 80 37 161 l6 97 190 82
c105 45 196 82 203 82 9 1 12 -67 12 -309z m3405 227 l190 -82 6 -97 c4 -81
10 -106 37 -161 19 -38 52 -83 81 -110 l50 -46 -66 -153 c-35 -84 -164 -387
-285 -673 -121 -286 -222 -522 -224 -524 -2 -2 -4 250 -4 561 l0 566 78 42
c103 56 112 66 112 111 0 29 -6 42 -26 58 -35 27 -54 26 -114 -4 l-50 -25 0
310 c0 242 3 310 13 309 6 0 98 -37 202 -82z"/>
<path d="M2266 4697 c-34 -34 -34 -79 -1 -112 69 -70 179 28 118 104 -10 12
-35 24 -55 27 -30 5 -41 2 -62 -19z"/>
<path d="M2585 4695 c-16 -15 -25 -35 -25 -56 0 -122 -117 -239 -239 -239 -21
0 -41 -9 -56 -25 l-25 -24 0 -1791 0 -1791 25 -24 c15 -16 35 -25 56 -25 122
0 239 -117 239 -239 0 -21 9 -41 25 -56 l24 -25 911 0 911 0 24 25 c16 15 25
35 25 56 0 122 117 239 239 239 21 0 41 9 56 25 l25 24 0 1791 0 1791 -25 24
c-15 16 -35 25 -56 25 -122 0 -239 117 -239 239 0 21 -9 41 -25 56 l-24 25
-911 0 -911 0 -24 -25z m1745 -149 c0 -32 73 -156 116 -195 42 -39 153 -101
182 -101 9 0 12 -345 12 -1690 0 -1345 -3 -1690 -12 -1690 -29 0 -140 -62
-182 -101 -43 -39 -116 -163 -116 -195 0 -12 -132 -14 -810 -14 -678 0 -810 2
-810 14 0 32 -73 156 -116 195 -42 39 -153 101 -181 101 -10 0 -13 345 -13
1690 0 1345 3 1690 13 1690 28 0 139 62 181 101 43 39 116 163 116 195 0 12
132 14 810 14 678 0 810 -2 810 -14z"/>
<path d="M3465 4455 l-25 -24 0 -351 0 -351 25 -24 c15 -16 36 -25 55 -25 19
0 40 9 55 25 l25 24 0 351 0 351 -25 24 c-15 16 -36 25 -55 25 -19 0 -40 -9
-55 -25z"/>
<path d="M2745 4055 c-48 -47 -40 -64 146 -296 93 -118 178 -220 186 -226 27
-21 72 -15 98 12 48 47 40 64 -146 296 -93 118 -178 220 -186 227 -27 20 -72
14 -98 -13z"/>
<path d="M4197 4068 c-8 -7 -93 -109 -186 -227 -186 -232 -194 -249 -146 -296
26 -27 71 -33 98 -12 8 6 93 108 186 226 186 232 194 249 146 296 -26 27 -71
33 -98 13z"/>
<path d="M3486 3538 c-8 -13 -59 -158 -112 -323 -53 -165 -101 -306 -107 -312
-7 -10 -88 -13 -341 -13 -284 0 -335 -2 -354 -16 -27 -19 -29 -64 -4 -92 9
-11 131 -102 270 -202 140 -101 256 -188 258 -195 3 -7 -40 -151 -95 -320 -56
-170 -101 -316 -101 -325 0 -31 30 -60 63 -60 26 0 85 39 300 196 147 108 273
194 280 191 7 -3 129 -91 272 -196 209 -154 266 -191 292 -191 33 0 63 29 63
60 0 8 -45 154 -101 323 -55 170 -98 315 -95 322 2 7 118 94 258 195 139 100
261 191 271 202 24 28 22 73 -5 92 -19 14 -70 16 -354 16 -253 0 -334 3 -341
13 -6 6 -52 140 -102 297 -110 340 -109 338 -132 350 -31 17 -68 11 -83 -12z
m138 -500 c57 -179 82 -241 98 -253 19 -13 64 -15 281 -15 161 0 257 -4 255
-10 -1 -5 -91 -73 -198 -151 -107 -78 -200 -149 -207 -158 -23 -30 -12 -87 61
-311 40 -124 69 -226 65 -228 -4 -2 -94 61 -201 139 -106 78 -203 145 -214
150 -12 4 -32 5 -45 2 -13 -3 -113 -71 -223 -150 -109 -79 -202 -143 -206
-141 -5 2 25 104 66 228 73 224 84 280 61 311 -7 9 -100 80 -207 158 -107 78
-196 146 -198 151 -2 6 94 10 255 10 216 0 262 3 281 15 16 12 40 74 97 248
41 128 78 238 81 246 3 8 8 11 13 5 4 -5 42 -116 85 -246z"/>
<path d="M3077 1588 c-8 -7 -93 -109 -186 -227 -186 -232 -194 -249 -146 -296
26 -27 71 -33 98 -12 8 6 93 108 186 226 186 232 194 249 146 296 -26 27 -71
33 -98 13z"/>
<path d="M3865 1575 c-48 -47 -40 -64 146 -296 93 -118 178 -220 186 -226 27
-21 72 -15 98 12 48 47 40 64 -146 296 -93 118 -178 220 -186 227 -27 20 -72
14 -98 -13z"/>
<path d="M3465 1415 l-25 -24 0 -351 0 -351 25 -24 c32 -33 78 -33 110 0 l25
24 0 351 0 351 -25 24 c-15 16 -36 25 -55 25 -19 0 -40 -9 -55 -25z"/>
<path d="M4665 4695 c-16 -15 -25 -36 -25 -55 0 -19 9 -40 25 -55 15 -16 36
-25 55 -25 19 0 40 9 55 25 16 15 25 36 25 55 0 19 -9 40 -25 55 -15 16 -36
25 -55 25 -19 0 -40 -9 -55 -25z"/>
<path d="M2265 535 c-50 -49 -15 -135 55 -135 41 0 80 39 80 80 0 41 -39 80
-80 80 -19 0 -40 -9 -55 -25z"/>
<path d="M4665 535 c-50 -49 -15 -135 55 -135 41 0 80 39 80 80 0 41 -39 80
-80 80 -19 0 -40 -9 -55 -25z"/>
<path d="M1082 3653 c-19 -8 -40 -55 -36 -83 2 -14 16 -36 31 -48 49 -44 123
-6 123 62 0 56 -62 92 -118 69z"/>
<path d="M5872 3637 c-66 -70 30 -179 101 -115 32 27 39 63 21 99 -23 46 -87
54 -122 16z"/>
</g>
</svg>
